<svg width="500" height="166" viewBox="0 0 500 166" fill="none" xmlns="http://www.w3.org/2000/svg">
<path d="M18.769 91.396C32.8456 91.396 46.9224 91.396 61.4256 91.396C61.4256 96.5487 61.4256 101.702 61.4256 107.011C68.7456 107.583 76.0654 108.156 83.6073 108.746C83.6073 103.02 83.6073 97.2948 83.6073 91.396C93.7424 91.396 103.878 91.396 114.32 91.396C110.406 103.722 105.967 115.776 101.31 127.83C100.615 129.649 99.9198 131.467 99.2035 133.34C98.5392 135.065 97.875 136.789 97.1907 138.566C96.589 140.129 95.9869 141.692 95.3669 143.303C93.8448 146.915 93.8448 146.915 92.1384 148.65C70.8831 150.507 54.0358 146.938 37.5445 132.9C28.8996 124.469 22.4988 115.129 18.769 103.541C18.769 99.5329 18.769 95.525 18.769 91.396Z" fill="#FEFEFE"/>
<path d="M81.9009 20.262C102.024 22.3082 115.988 27.4048 129.676 42.8166C137.193 53.2111 140.17 61.2088 143.326 74.0461C123.619 74.0461 103.912 74.0461 83.6073 74.0461C83.0442 56.2975 82.4811 38.5486 81.9009 20.262Z" fill="#FEFEFE"/>
<path d="M141.62 80.1185C142.474 79.2512 142.474 79.2513 143.327 77.5161C144.639 96.6795 140.436 111.569 128.93 126.861C125.998 129.835 123.219 131.37 119.439 133.036C123.083 121.089 128.041 109.66 132.766 98.1257C133.774 95.6465 133.774 95.6465 134.802 93.1175C135.415 91.6209 136.027 90.1245 136.658 88.5825C138.038 84.9078 139.914 82.7212 141.62 80.1185Z" fill="#FEFEFE"/>
<path d="M59.7195 44.5518C60.2826 44.5518 60.8456 44.5518 61.4256 44.5518C61.4256 54.2849 61.4256 64.018 61.4256 74.0462C54.1058 74.0462 46.7857 74.0462 39.2442 74.0462C41.8035 70.5762 39.2442 74.0462 41.8035 70.5762C44.3631 67.1065 42.6567 69.7089 44.3631 67.1065C47.3555 62.1929 49.4817 58.4314 53.0009 52.6843C54.2174 51.1524 55.4337 49.6203 56.6869 48.0418C57.6875 46.89 58.6884 45.7385 59.7195 44.5518Z" fill="#FEFEFE"/>
<path d="M44.3631 30.6719C44.3631 36.4865 43.6881 37.4354 40.3773 41.8949C39.5459 43.029 38.7145 44.1627 37.8579 45.3311C36.9779 46.5054 36.0983 47.6793 35.1919 48.8891C33.4715 51.2201 31.7517 53.5513 30.0331 55.8832C29.2645 56.9133 28.4961 57.9431 27.7044 59.0043C25.781 61.6449 23.9741 64.3722 22.1815 67.1065C21.0554 67.1065 19.9292 67.1065 18.769 67.1065C20.9843 59.2743 23.9396 53.4902 28.6867 46.9373C29.8238 45.3405 30.9611 43.7436 32.1326 42.0985C35.8558 37.5824 39.723 34.1797 44.3631 30.6719Z" fill="#FEFEFE"/>
<path d="M206.713 64.0702H199.264L216.002 17.4737H224.11L240.848 64.0702H233.399L220.249 25.9375H219.885L206.713 64.0702ZM207.963 45.823H232.127V51.7385H207.963V45.823ZM271.1 32.1944C270.66 30.814 270.07 29.5778 269.328 28.4858C268.601 27.3785 267.731 26.4381 266.717 25.6645C265.702 24.8758 264.544 24.2766 263.242 23.8671C261.955 23.4576 260.539 23.2528 258.995 23.2528C256.376 23.2528 254.014 23.9278 251.909 25.2777C249.805 26.6277 248.139 28.6071 246.913 31.2159C245.701 33.8099 245.096 36.9875 245.096 40.7493C245.096 44.5262 245.709 47.7189 246.935 50.3278C248.162 52.9369 249.842 54.9163 251.977 56.2662C254.112 57.6163 256.542 58.2911 259.267 58.2911C261.796 58.2911 263.999 57.7753 265.876 56.7441C267.769 55.7126 269.23 54.2564 270.259 52.3757C271.304 50.4795 271.826 48.2498 271.826 45.6865L273.643 46.0278H260.335V40.2259H278.617V45.5271C278.617 49.4407 277.784 52.8381 276.119 55.7201C274.468 58.587 272.182 60.8015 269.26 62.3639C266.353 63.9261 263.022 64.7071 259.267 64.7071C255.058 64.7071 251.364 63.7365 248.185 61.7952C245.02 59.8535 242.552 57.1006 240.781 53.5359C239.009 49.9561 238.124 45.7092 238.124 40.7947C238.124 37.0786 238.638 33.7414 239.668 30.7837C240.697 27.826 242.143 25.3157 244.006 23.2528C245.883 21.1747 248.086 19.5897 250.615 18.4976C253.158 17.3903 255.936 16.8367 258.949 16.8367C261.463 16.8367 263.802 17.2083 265.967 17.9515C268.147 18.6948 270.085 19.749 271.781 21.1141C273.492 22.4792 274.908 24.1022 276.028 25.983C277.148 27.8487 277.905 29.9191 278.299 32.1944H271.1ZM281.769 64.0702V17.4737H310.93V23.5258H288.787V37.7231H309.407V43.7524H288.787V58.0182H311.203V64.0702H281.769ZM352.09 17.4737V64.0702H345.64L321.997 29.8964H321.567V64.0702H314.549V17.4737H321.044L344.709 51.693H345.14V17.4737H352.09ZM395.201 32.6266H388.116C387.843 31.1099 387.334 29.7752 386.593 28.6223C385.852 27.4695 384.942 26.4912 383.869 25.6873C382.794 24.8834 381.59 24.2766 380.259 23.8671C378.939 23.4576 377.541 23.2528 376.055 23.2528C373.375 23.2528 370.977 23.9278 368.858 25.2777C366.753 26.6277 365.087 28.6071 363.86 31.2159C362.648 33.825 362.044 37.0102 362.044 40.772C362.044 44.5641 362.648 47.7644 363.86 50.3735C365.087 52.9823 366.759 54.9542 368.878 56.2889C371 57.6239 373.384 58.2911 376.032 58.2911C377.503 58.2911 378.895 58.0939 380.212 57.6996C381.544 57.2901 382.747 56.6908 383.823 55.9021C384.898 55.1135 385.805 54.1501 386.549 53.0126C387.305 51.8599 387.828 50.5403 388.116 49.0539L395.201 49.0766C394.823 51.3669 394.087 53.4753 392.997 55.4015C391.924 57.3129 390.538 58.9662 388.843 60.3617C387.163 61.7419 385.238 62.8112 383.073 63.5696C380.907 64.328 378.546 64.7071 375.988 64.7071C371.959 64.7071 368.372 63.7516 365.224 61.8406C362.073 59.9141 359.59 57.1611 357.773 53.5814C355.971 50.0019 355.07 45.7319 355.07 40.772C355.07 35.7969 355.98 31.5269 357.797 27.9625C359.613 24.3828 362.096 21.6374 365.244 19.7262C368.395 17.7998 371.977 16.8367 375.988 16.8367C378.456 16.8367 380.756 17.1931 382.892 17.906C385.041 18.6038 386.971 19.6352 388.683 21.0003C390.392 22.3503 391.808 24.0036 392.93 25.9603C394.049 27.9018 394.808 30.1238 395.201 32.6266ZM397.843 64.0702V17.4737H427.003V23.5258H404.86V37.7231H425.483V43.7524H404.86V58.0182H427.276V64.0702H397.843ZM429.009 54.9693V49.2814L449.108 17.4737H453.581V25.8465H450.744L436.366 48.6442V49.0082H463.916V54.9693H429.009ZM451.061 64.0702V53.24L451.108 50.6464V17.4737H457.762V64.0702H451.061ZM467.642 64.0702L487.945 23.8443V23.5031H464.462V17.4737H495.212V23.7078L474.977 64.0702H467.642Z" fill="white"/>
<path d="M223.094 108.284C222.871 106.397 221.967 104.933 220.381 103.891C218.795 102.848 216.851 102.327 214.546 102.327C212.862 102.327 211.387 102.6 210.124 103.146C208.873 103.692 207.894 104.443 207.188 105.399C206.494 106.354 206.148 107.44 206.148 108.656C206.148 109.674 206.389 110.549 206.872 111.281C207.368 112.001 207.999 112.603 208.768 113.087C209.536 113.558 210.341 113.949 211.183 114.259C212.026 114.557 212.8 114.799 213.506 114.986L217.371 116.028C218.362 116.288 219.464 116.648 220.678 117.107C221.905 117.567 223.075 118.193 224.19 118.988C225.317 119.77 226.246 120.775 226.978 122.004C227.708 123.232 228.074 124.74 228.074 126.527C228.074 128.587 227.535 130.449 226.457 132.111C225.392 133.775 223.831 135.096 221.775 136.077C219.731 137.057 217.247 137.547 214.324 137.547C211.598 137.547 209.238 137.107 207.244 136.226C205.262 135.344 203.701 134.116 202.561 132.54C201.434 130.964 200.796 129.133 200.647 127.048H205.404C205.528 128.488 206.011 129.679 206.854 130.622C207.708 131.553 208.786 132.248 210.087 132.707C211.4 133.154 212.812 133.377 214.324 133.377C216.083 133.377 217.662 133.092 219.062 132.521C220.462 131.938 221.57 131.131 222.388 130.101C223.206 129.059 223.614 127.842 223.614 126.453C223.614 125.187 223.261 124.157 222.555 123.362C221.849 122.568 220.92 121.923 219.768 121.426C218.616 120.93 217.371 120.496 216.033 120.123L211.35 118.783C208.377 117.927 206.024 116.704 204.29 115.116C202.555 113.527 201.688 111.449 201.688 108.88C201.688 106.745 202.264 104.883 203.416 103.295C204.58 101.694 206.141 100.453 208.099 99.5717C210.068 98.6782 212.267 98.2314 214.695 98.2314C217.148 98.2314 219.328 98.6721 221.236 99.553C223.144 100.422 224.655 101.613 225.77 103.127C226.897 104.641 227.492 106.36 227.553 108.284H223.094ZM230.941 98.7527H236.441L249.374 130.399H249.82L262.753 98.7527H268.253V136.877H263.942V107.912H263.57L251.678 136.877H247.516L235.624 107.912H235.252V136.877H230.941V98.7527ZM274.344 136.877H269.513L283.486 98.7527H288.243L302.215 136.877H297.384L286.013 104.784H285.716L274.344 136.877ZM276.128 121.985H295.602V126.08H276.128V121.985ZM303.433 136.877V98.7527H316.294C319.265 98.7527 321.706 99.2615 323.613 100.279C325.52 101.284 326.933 102.668 327.852 104.431C328.767 106.193 329.227 108.197 329.227 110.443C329.227 112.689 328.767 114.681 327.852 116.419C326.933 118.156 325.529 119.521 323.634 120.514C321.738 121.494 319.317 121.985 316.366 121.985H305.962V117.815H316.218C318.25 117.815 319.887 117.517 321.125 116.921C322.375 116.326 323.279 115.482 323.837 114.39C324.407 113.285 324.692 111.97 324.692 110.443C324.692 108.917 324.407 107.583 323.837 106.441C323.267 105.299 322.358 104.418 321.105 103.797C319.855 103.165 318.201 102.848 316.145 102.848H308.044V136.877H303.433ZM321.346 119.751L330.712 136.877H325.36L316.145 119.751H321.346ZM330.113 102.848V98.7527H358.654V102.848H346.689V136.877H342.081V102.848H330.113ZM372.93 115.767V119.863H356.282V115.767H372.93ZM376.532 136.877V98.7527H389.837C392.488 98.7527 394.674 99.212 396.395 100.13C398.119 101.036 399.401 102.259 400.244 103.797C401.084 105.324 401.506 107.018 401.506 108.88C401.506 110.518 401.215 111.871 400.634 112.938C400.064 114.005 399.308 114.849 398.366 115.469C397.436 116.09 396.427 116.549 395.337 116.847V117.219C396.503 117.294 397.671 117.703 398.849 118.448C400.026 119.193 401.012 120.26 401.805 121.65C402.596 123.04 402.994 124.74 402.994 126.75C402.994 128.662 402.558 130.38 401.692 131.907C400.826 133.433 399.456 134.643 397.587 135.537C395.715 136.43 393.282 136.877 390.282 136.877H376.532ZM381.142 132.782H390.282C393.294 132.782 395.43 132.199 396.695 131.032C397.971 129.853 398.608 128.426 398.608 126.75C398.608 125.46 398.279 124.268 397.622 123.176C396.965 122.072 396.032 121.19 394.817 120.533C393.602 119.863 392.166 119.528 390.506 119.528H381.142V132.782ZM381.142 115.507H389.689C391.076 115.507 392.328 115.234 393.442 114.688C394.57 114.142 395.462 113.372 396.119 112.379C396.788 111.387 397.122 110.22 397.122 108.88C397.122 107.204 396.538 105.783 395.375 104.617C394.209 103.438 392.363 102.848 389.837 102.848H381.142V115.507ZM405.855 136.877V98.7527H418.715C421.686 98.7527 424.128 99.2615 426.035 100.279C427.942 101.284 429.355 102.668 430.273 104.431C431.189 106.193 431.648 108.197 431.648 110.443C431.648 112.689 431.189 114.681 430.273 116.419C429.355 118.156 427.951 119.521 426.055 120.514C424.16 121.494 421.735 121.985 418.788 121.985H408.384V117.815H418.64C420.671 117.815 422.305 117.517 423.546 116.921C424.796 116.326 425.701 115.482 426.259 114.39C426.828 113.285 427.113 111.97 427.113 110.443C427.113 108.917 426.828 107.583 426.259 106.441C425.689 105.299 424.779 104.418 423.526 103.797C422.276 103.165 420.622 102.848 418.567 102.848H410.465V136.877H405.855ZM423.767 119.751L433.134 136.877H427.782L418.567 119.751H423.767ZM439.224 98.7527V136.877H434.616V98.7527H439.224ZM443.756 136.877V98.7527H466.721V102.848H448.363V115.73H465.532V119.825H448.363V132.782H467.02V136.877H443.756ZM470.32 136.877V98.7527H493.137V102.848H474.927V115.73H491.427V119.825H474.927V136.877H470.32Z" fill="#67CFB1"/>
<path d="M174.419 5.82446V160.175" stroke="white" stroke-width="2" stroke-linecap="round"/>
<path d="M197.674 83.728H500" stroke="white" stroke-opacity="0.8" stroke-width="0.5"/>
</svg>
