<svg width="172" height="57" viewBox="0 0 172 57" fill="none" xmlns="http://www.w3.org/2000/svg">
<path d="M6.45652 31.3831C11.2989 31.3831 16.1413 31.3831 21.1304 31.3831C21.1304 33.1524 21.1304 34.9218 21.1304 36.7448C23.6485 36.9414 26.1665 37.1379 28.7609 37.3405C28.7609 35.3745 28.7609 33.4086 28.7609 31.3831C32.2474 31.3831 35.7339 31.3831 39.3261 31.3831C37.9795 35.6156 36.4528 39.7545 34.8505 43.8937C34.6114 44.518 34.3724 45.1424 34.126 45.7856C33.8975 46.3777 33.669 46.9698 33.4336 47.5799C33.2266 48.1167 33.0195 48.6535 32.8062 49.2065C32.2826 50.4469 32.2826 50.4469 31.6957 51.0426C24.3838 51.6802 18.5883 50.4549 12.9153 45.6344C9.94147 42.7396 7.73959 39.5325 6.45652 35.5533C6.45652 34.1771 6.45652 32.8009 6.45652 31.3831Z" fill="#FEFEFE"/>
<path d="M28.1739 6.95752C35.0964 7.66013 39.9 9.41018 44.6087 14.7022C47.1943 18.2713 48.2186 21.0176 49.3043 25.4256C42.525 25.4256 35.7457 25.4256 28.7609 25.4256C28.5672 19.3311 28.3735 13.2367 28.1739 6.95752Z" fill="#FEFEFE"/>
<path d="M48.7174 27.5106C49.0109 27.2127 49.0109 27.2127 49.3043 26.6169C49.7558 33.1972 48.31 38.3098 44.3519 43.5608C43.3434 44.5818 42.3875 45.109 41.087 45.6808C42.3405 41.5786 44.046 37.6542 45.6714 33.6937C46.0181 32.8425 46.0181 32.8425 46.3719 31.974C46.5826 31.4601 46.7934 30.9463 47.0105 30.4169C47.4852 29.155 48.1304 28.4042 48.7174 27.5106Z" fill="#FEFEFE"/>
<path d="M20.5435 15.2979C20.7372 15.2979 20.9309 15.2979 21.1304 15.2979C21.1304 18.64 21.1304 21.9821 21.1304 25.4255C18.6124 25.4255 16.0943 25.4255 13.5 25.4255C14.3804 24.234 13.5 25.4255 14.3804 24.234C15.2609 23.0425 14.6739 23.9361 15.2609 23.0425C16.2903 21.3554 17.0217 20.0638 18.2323 18.0904C18.6508 17.5644 19.0692 17.0383 19.5003 16.4963C19.8445 16.1008 20.1888 15.7053 20.5435 15.2979Z" fill="#FEFEFE"/>
<path d="M15.2609 10.532C15.2609 12.5286 15.0287 12.8544 13.8898 14.3857C13.6038 14.7751 13.3178 15.1644 13.0231 15.5656C12.7204 15.9687 12.4178 16.3719 12.106 16.7873C11.5142 17.5876 10.9226 18.3882 10.3314 19.1889C10.067 19.5425 9.80266 19.8962 9.5303 20.2605C8.86865 21.1673 8.24709 22.1038 7.63043 23.0426C7.24304 23.0426 6.85565 23.0426 6.45652 23.0426C7.21861 20.3532 8.23523 18.3671 9.86821 16.1171C10.2594 15.5688 10.6506 15.0205 11.0536 14.4555C12.3344 12.9049 13.6647 11.7365 15.2609 10.532Z" fill="#FEFEFE"/>
<path d="M71.1094 22H68.5469L74.3047 6H77.0938L82.8516 22H80.2891L75.7656 8.90625H75.6406L71.1094 22ZM71.5391 15.7344H79.8516V17.7656H71.5391V15.7344ZM93.2583 11.0547C93.1072 10.5807 92.9041 10.1562 92.6489 9.78125C92.3989 9.40104 92.0994 9.07812 91.7505 8.8125C91.4015 8.54167 91.0031 8.33594 90.5552 8.19531C90.1124 8.05469 89.6255 7.98437 89.0942 7.98437C88.1932 7.98437 87.3807 8.21615 86.6567 8.67969C85.9328 9.14323 85.3598 9.82292 84.938 10.7187C84.5213 11.6094 84.313 12.7005 84.313 13.9922C84.313 15.2891 84.5239 16.3854 84.9458 17.2812C85.3677 18.1771 85.9458 18.8568 86.6802 19.3203C87.4145 19.7839 88.2505 20.0156 89.188 20.0156C90.0578 20.0156 90.8156 19.8385 91.4614 19.4844C92.1124 19.1302 92.6151 18.6302 92.9692 17.9844C93.3286 17.3333 93.5083 16.5677 93.5083 15.6875L94.1333 15.8047H89.5552V13.8125H95.8442V15.6328C95.8442 16.9766 95.5578 18.1432 94.9848 19.1328C94.4171 20.1172 93.6307 20.8776 92.6255 21.4141C91.6255 21.9505 90.4796 22.2187 89.188 22.2187C87.7401 22.2187 86.4692 21.8854 85.3755 21.2188C84.2869 20.5521 83.438 19.6068 82.8286 18.3828C82.2192 17.1536 81.9145 15.6953 81.9145 14.0078C81.9145 12.7318 82.0916 11.5859 82.4458 10.5703C82.7999 9.55469 83.2973 8.69271 83.938 7.98437C84.5838 7.27083 85.3416 6.72656 86.2114 6.35156C87.0864 5.97135 88.0421 5.78125 89.0786 5.78125C89.9432 5.78125 90.7479 5.90885 91.4927 6.16406C92.2427 6.41927 92.9093 6.78125 93.4927 7.25C94.0812 7.71875 94.5682 8.27604 94.9536 8.92187C95.339 9.5625 95.5994 10.2734 95.7348 11.0547H93.2583ZM96.9287 22V6H106.96V8.07812H99.3427V12.9531H106.436V15.0234H99.3427V19.9219H107.054V22H96.9287ZM121.119 6V22H118.9L110.767 10.2656H110.619V22H108.205V6H110.439L118.58 17.75H118.728V6H121.119ZM135.949 11.2031H133.512C133.418 10.6823 133.243 10.224 132.988 9.82812C132.733 9.43229 132.42 9.09635 132.051 8.82031C131.681 8.54427 131.267 8.33594 130.809 8.19531C130.355 8.05469 129.874 7.98437 129.363 7.98437C128.441 7.98437 127.616 8.21615 126.887 8.67969C126.163 9.14323 125.59 9.82292 125.168 10.7187C124.751 11.6146 124.543 12.7083 124.543 14C124.543 15.3021 124.751 16.401 125.168 17.2969C125.59 18.1927 126.165 18.8698 126.894 19.3281C127.624 19.7865 128.444 20.0156 129.355 20.0156C129.861 20.0156 130.34 19.9479 130.793 19.8125C131.251 19.6719 131.665 19.4661 132.035 19.1953C132.405 18.9245 132.717 18.5937 132.973 18.2031C133.233 17.8073 133.413 17.3542 133.512 16.8438L135.949 16.8516C135.819 17.638 135.566 18.362 135.191 19.0234C134.822 19.6797 134.345 20.2474 133.762 20.7266C133.184 21.2005 132.522 21.5677 131.777 21.8281C131.032 22.0885 130.22 22.2187 129.34 22.2187C127.954 22.2187 126.72 21.8906 125.637 21.2344C124.553 20.5729 123.699 19.6276 123.074 18.3984C122.454 17.1693 122.144 15.7031 122.144 14C122.144 12.2917 122.457 10.8255 123.082 9.60156C123.707 8.3724 124.561 7.42969 125.644 6.77344C126.728 6.11198 127.96 5.78125 129.34 5.78125C130.189 5.78125 130.98 5.90365 131.715 6.14844C132.454 6.38802 133.118 6.74219 133.707 7.21094C134.295 7.67448 134.782 8.24219 135.168 8.91406C135.553 9.58073 135.814 10.3437 135.949 11.2031ZM136.858 22V6H146.889V8.07812H139.272V12.9531H146.366V15.0234H139.272V19.9219H146.983V22H136.858ZM147.579 18.875V16.9219L154.493 6H156.032V8.875H155.056L150.11 16.7031V16.8281H159.587V18.875H147.579ZM155.165 22V18.2812L155.181 17.3906V6H157.47V22H155.165ZM160.869 22L167.853 8.1875V8.07031H159.775V6H170.353V8.14062L163.392 22H160.869Z" fill="white"/>
<path d="M76.7443 37.1818C76.6676 36.5341 76.3565 36.0312 75.8111 35.6733C75.2656 35.3153 74.5966 35.1364 73.804 35.1364C73.2244 35.1364 72.7173 35.2301 72.2827 35.4176C71.8523 35.6051 71.5156 35.8629 71.2727 36.1911C71.0341 36.5192 70.9148 36.892 70.9148 37.3097C70.9148 37.6591 70.9979 37.9595 71.1641 38.2109C71.3345 38.4581 71.5518 38.6648 71.8161 38.831C72.0803 38.9929 72.3572 39.1271 72.647 39.2337C72.9368 39.3359 73.2031 39.419 73.446 39.483L74.7756 39.8409C75.1165 39.9304 75.4957 40.054 75.9134 40.2116C76.3352 40.3693 76.7379 40.5845 77.1214 40.8572C77.5092 41.1257 77.8288 41.4709 78.0803 41.8928C78.3317 42.3146 78.4574 42.8324 78.4574 43.446C78.4574 44.1534 78.272 44.7926 77.9013 45.3636C77.5348 45.9347 76.9979 46.3885 76.2905 46.7251C75.5874 47.0618 74.733 47.2301 73.7273 47.2301C72.7898 47.2301 71.978 47.0788 71.2919 46.7763C70.6101 46.4737 70.0732 46.0518 69.6811 45.5107C69.2933 44.9695 69.0739 44.3409 69.0227 43.625H70.6591C70.7017 44.1193 70.8679 44.5284 71.1577 44.8523C71.4517 45.1719 71.8224 45.4105 72.2699 45.5682C72.7216 45.7216 73.2074 45.7983 73.7273 45.7983C74.3324 45.7983 74.8757 45.7003 75.3572 45.5043C75.8388 45.304 76.2202 45.027 76.5014 44.6733C76.7827 44.3153 76.9233 43.8977 76.9233 43.4205C76.9233 42.9858 76.8018 42.6321 76.5589 42.3594C76.3161 42.0866 75.9964 41.8651 75.6001 41.6946C75.2038 41.5241 74.7756 41.375 74.3153 41.2472L72.7045 40.7869C71.6818 40.4929 70.8722 40.0732 70.2756 39.5277C69.679 38.9822 69.3807 38.2685 69.3807 37.3864C69.3807 36.6534 69.5788 36.0142 69.9751 35.4688C70.3757 34.919 70.9126 34.4929 71.5859 34.1903C72.2635 33.8835 73.0199 33.7301 73.8551 33.7301C74.6989 33.7301 75.4489 33.8814 76.1051 34.1839C76.7614 34.4822 77.2813 34.8913 77.6648 35.4112C78.0526 35.9311 78.2571 36.5213 78.2784 37.1818H76.7443ZM79.4437 33.9091H81.3358L85.7847 44.7756H85.9381L90.3869 33.9091H92.279V47H90.796V37.054H90.6682L86.5773 47H85.1454L81.0545 37.054H80.9267V47H79.4437V33.9091ZM94.3743 47H92.7124L97.5192 33.9091H99.1556L103.962 47H102.3L98.3886 35.9801H98.2863L94.3743 47ZM94.988 41.8864H101.687V43.2926H94.988V41.8864ZM104.381 47V33.9091H108.805C109.827 33.9091 110.667 34.0838 111.323 34.4332C111.979 34.7784 112.465 35.2536 112.781 35.8587C113.096 36.4638 113.254 37.152 113.254 37.9233C113.254 38.6946 113.096 39.3786 112.781 39.9751C112.465 40.5717 111.982 41.0405 111.33 41.3814C110.678 41.718 109.845 41.8864 108.83 41.8864H105.251V40.4545H108.779C109.478 40.4545 110.041 40.3523 110.467 40.1477C110.897 39.9432 111.208 39.6534 111.4 39.2784C111.596 38.8991 111.694 38.4474 111.694 37.9233C111.694 37.3991 111.596 36.9411 111.4 36.549C111.204 36.157 110.891 35.8544 110.46 35.6413C110.03 35.424 109.461 35.3153 108.754 35.3153H105.967V47H104.381ZM110.543 41.1193L113.765 47H111.924L108.754 41.1193H110.543ZM113.559 35.3153V33.9091H123.377V35.3153H119.261V47H117.676V35.3153H113.559ZM128.288 39.7514V41.1577H122.561V39.7514H128.288ZM129.527 47V33.9091H134.104C135.016 33.9091 135.768 34.0668 136.36 34.3821C136.953 34.6932 137.394 35.1129 137.684 35.6413C137.973 36.1655 138.118 36.7472 138.118 37.3864C138.118 37.9489 138.018 38.4134 137.818 38.7798C137.622 39.1463 137.362 39.4361 137.038 39.6491C136.718 39.8622 136.371 40.0199 135.996 40.1222V40.25C136.397 40.2756 136.799 40.4162 137.204 40.6719C137.609 40.9276 137.948 41.294 138.221 41.7713C138.493 42.2486 138.63 42.8324 138.63 43.5227C138.63 44.179 138.48 44.7692 138.182 45.2933C137.884 45.8175 137.413 46.233 136.77 46.5398C136.126 46.8466 135.289 47 134.257 47H129.527ZM131.113 45.5938H134.257C135.293 45.5938 136.028 45.3935 136.463 44.9929C136.902 44.5881 137.121 44.098 137.121 43.5227C137.121 43.0795 137.008 42.6705 136.782 42.2955C136.556 41.9162 136.235 41.6136 135.817 41.3878C135.399 41.1577 134.905 41.0426 134.334 41.0426H131.113V45.5938ZM131.113 39.6619H134.053C134.53 39.6619 134.961 39.5682 135.344 39.3807C135.732 39.1932 136.039 38.929 136.265 38.5881C136.495 38.2472 136.61 37.8466 136.61 37.3864C136.61 36.8111 136.409 36.3232 136.009 35.9226C135.608 35.5178 134.973 35.3153 134.104 35.3153H131.113V39.6619ZM139.614 47V33.9091H144.038C145.06 33.9091 145.9 34.0838 146.556 34.4332C147.212 34.7784 147.698 35.2536 148.014 35.8587C148.329 36.4638 148.487 37.152 148.487 37.9233C148.487 38.6946 148.329 39.3786 148.014 39.9751C147.698 40.5717 147.215 41.0405 146.563 41.3814C145.911 41.718 145.077 41.8864 144.063 41.8864H140.484V40.4545H144.012C144.711 40.4545 145.273 40.3523 145.7 40.1477C146.13 39.9432 146.441 39.6534 146.633 39.2784C146.829 38.8991 146.927 38.4474 146.927 37.9233C146.927 37.3991 146.829 36.9411 146.633 36.549C146.437 36.157 146.124 35.8544 145.693 35.6413C145.263 35.424 144.694 35.3153 143.987 35.3153H141.2V47H139.614ZM145.776 41.1193L148.998 47H147.157L143.987 41.1193H145.776ZM151.093 33.9091V47H149.508V33.9091H151.093ZM152.652 47V33.9091H160.552V35.3153H154.237V39.7386H160.143V41.1449H154.237V45.5938H160.655V47H152.652ZM161.79 47V33.9091H169.639V35.3153H163.375V39.7386H169.051V41.1449H163.375V47H161.79Z" fill="#67CFB1"/>
<line x1="60" y1="2" x2="60" y2="55" stroke="white" stroke-width="2" stroke-linecap="round"/>
<line x1="68" y1="28.75" x2="172" y2="28.75" stroke="white" stroke-opacity="0.8" stroke-width="0.5"/>
</svg>
